<?xml version="1.0" standalone="no"?>
<!DOCTYPE svg PUBLIC "-//W3C//DTD SVG 20010904//EN"
 "http://www.w3.org/TR/2001/REC-SVG-20010904/DTD/svg10.dtd">
<svg version="1.0" xmlns="http://www.w3.org/2000/svg"
 width="912.000000pt" height="912.000000pt" viewBox="0 0 912.000000 912.000000"
 preserveAspectRatio="xMidYMid meet">
<metadata>
Created by potrace 1.14, written by Peter Selinger 2001-2017
</metadata>
<g transform="translate(0.000000,912.000000) scale(0.100000,-0.100000)"
fill="#000000" stroke="none">
<path d="M4319 9116 c-2 -2 -47 -6 -99 -10 -52 -3 -106 -8 -120 -10 -14 -3
-50 -7 -81 -10 -161 -15 -442 -71 -654 -131 -335 -94 -737 -265 -1015 -431
-63 -38 -119 -71 -125 -73 -19 -8 -230 -154 -309 -215 -180 -136 -294 -235
-465 -406 -97 -96 -138 -140 -226 -240 -26 -30 -170 -209 -208 -261 -92 -122
-302 -452 -295 -463 2 -2 -4 -12 -13 -22 -41 -48 -193 -376 -271 -584 -21 -58
-42 -112 -45 -120 -3 -8 -7 -19 -8 -25 -2 -5 -12 -37 -22 -70 -11 -33 -35
-116 -53 -185 -18 -69 -35 -132 -38 -140 -2 -8 -6 -22 -7 -30 -12 -69 -38
-206 -40 -210 -3 -5 -10 -49 -20 -125 -2 -22 -7 -50 -9 -62 -3 -12 -7 -54 -11
-95 -3 -40 -8 -84 -10 -98 -3 -14 -5 -58 -7 -97 -1 -42 -7 -73 -13 -73 -6 0
-7 -3 0 -8 14 -10 17 -32 4 -32 -5 0 -7 -5 -3 -12 4 -6 6 -37 5 -67 -5 -120
-6 -221 -1 -221 3 0 5 -25 5 -55 0 -31 -4 -55 -10 -55 -6 0 -5 -3 1 -8 7 -4
14 -51 18 -107 4 -55 9 -116 11 -135 3 -19 7 -55 9 -80 2 -25 6 -52 9 -60 3
-8 8 -37 11 -65 8 -61 14 -98 30 -175 3 -14 8 -36 11 -50 22 -112 22 -109 25
-112 1 -2 3 -12 5 -23 7 -38 47 -180 56 -200 5 -11 11 -34 12 -52 1 -17 5 -29
10 -26 6 4 12 -28 8 -49 0 -5 3 -8 9 -8 5 0 10 -8 10 -18 0 -10 5 -23 12 -30
7 -7 9 -12 5 -12 -3 0 5 -30 19 -67 14 -36 23 -72 20 -80 -3 -8 -1 -11 4 -8 6
3 13 -2 16 -12 8 -24 24 -64 36 -86 6 -13 5 -23 -3 -33 -10 -12 -9 -13 5 -8 9
3 16 1 16 -5 0 -6 20 -51 44 -100 29 -60 40 -91 33 -95 -7 -2 -5 -5 4 -5 19
-1 32 -27 22 -43 -3 -6 -2 -8 3 -5 6 3 30 -33 54 -81 24 -48 54 -104 68 -126
19 -31 21 -40 10 -48 -10 -7 -8 -8 5 -4 13 4 20 0 24 -14 3 -11 10 -20 15 -20
6 0 5 -7 -2 -15 -11 -13 -10 -14 5 -8 15 5 17 3 12 -11 -4 -10 -3 -15 3 -11 6
3 10 2 10 -4 0 -5 11 -23 25 -39 13 -16 22 -32 18 -36 -3 -3 -1 -6 5 -6 7 0
12 -6 12 -14 0 -8 3 -16 8 -18 17 -7 83 -108 77 -118 -4 -6 -2 -9 4 -8 14 4
82 -92 74 -105 -3 -6 -1 -7 5 -3 13 8 106 -110 97 -123 -3 -5 0 -13 6 -17 8
-4 9 -3 5 4 -12 20 6 13 25 -9 10 -12 16 -26 13 -31 -3 -4 0 -7 8 -6 7 2 12
-3 10 -10 -1 -8 2 -11 7 -8 5 3 17 -7 26 -22 10 -15 24 -31 32 -35 7 -5 11
-12 8 -18 -4 -5 1 -9 10 -9 12 0 15 -6 10 -22 -5 -17 -4 -19 4 -9 8 13 13 11
30 -10 11 -13 20 -27 21 -31 0 -5 7 -8 16 -8 8 0 12 -5 9 -10 -3 -6 1 -10 10
-10 12 0 15 -5 11 -17 -4 -10 -4 -14 0 -11 9 10 95 -73 87 -85 -4 -6 -1 -7 6
-3 14 9 42 -24 34 -38 -4 -5 -1 -6 5 -2 7 4 29 -9 51 -31 60 -58 102 -93 113
-93 6 0 7 -8 4 -17 -4 -10 -4 -14 0 -11 10 10 46 -11 39 -23 -4 -5 1 -9 9 -9
15 0 46 -22 93 -68 13 -12 28 -22 32 -22 4 0 20 -11 35 -25 15 -14 30 -25 33
-25 11 0 68 -54 65 -62 -1 -5 2 -7 7 -3 12 7 121 -63 121 -77 0 -5 4 -7 9 -4
5 3 20 -5 35 -19 14 -13 26 -22 26 -19 0 3 9 0 20 -6 11 -6 18 -16 14 -21 -3
-6 0 -9 7 -8 22 4 71 -20 64 -31 -3 -6 1 -7 9 -4 11 4 16 0 17 -12 0 -11 3
-14 6 -7 3 10 7 10 18 0 7 -7 11 -15 9 -18 -2 -4 2 -7 9 -6 31 1 48 -4 43 -12
-3 -5 7 -11 23 -14 16 -3 36 -13 44 -22 9 -9 18 -15 19 -15 11 4 58 -22 54
-29 -4 -5 3 -7 14 -4 12 3 22 -1 26 -11 3 -9 10 -13 15 -10 5 2 18 0 30 -6 20
-11 20 -12 2 -33 -18 -22 -18 -22 3 -5 26 23 23 23 91 -9 32 -15 61 -26 66
-25 12 3 8 -16 -5 -21 -10 -4 -10 -6 -1 -6 6 -1 14 3 17 8 7 11 66 -9 66 -22
0 -4 4 -6 9 -2 5 3 12 1 16 -5 4 -6 11 -8 16 -5 5 4 9 1 9 -5 0 -6 5 -8 10 -5
6 3 10 -2 10 -12 0 -14 2 -15 9 -4 6 8 14 10 22 5 8 -5 19 -9 24 -11 17 -3 80
-28 85 -33 3 -3 16 -7 30 -9 14 -1 28 -8 32 -14 4 -6 10 -9 13 -5 4 3 31 -3
60 -13 30 -10 61 -19 70 -19 8 0 15 -5 15 -11 0 -5 5 -7 10 -4 5 3 16 3 22 -2
7 -4 19 -8 26 -9 42 -7 110 -29 107 -34 -3 -4 9 -6 25 -4 17 2 30 -1 30 -6 0
-5 7 -7 15 -4 8 3 20 2 27 -2 7 -4 31 -10 53 -12 22 -2 42 -7 45 -11 3 -4 17
-7 33 -6 15 1 27 -2 27 -6 0 -5 7 -5 17 -2 12 5 14 3 8 -8 -8 -12 -6 -12 8 -1
9 8 21 11 26 8 5 -4 29 -9 53 -12 24 -4 45 -10 46 -16 2 -5 10 -4 18 3 8 6 14
7 14 2 0 -5 10 -9 23 -9 12 0 56 -4 97 -8 41 -5 86 -9 100 -11 14 -1 38 -3 53
-4 16 0 26 -5 23 -10 -3 -5 2 -15 12 -22 15 -12 16 -12 5 2 -14 17 -8 29 15
29 9 0 12 -6 8 -17 -6 -17 -5 -17 8 0 15 19 31 23 20 5 -5 -9 -2 -9 9 1 13 10
17 10 17 1 0 -8 4 -9 13 -3 6 5 18 8 25 7 6 -1 17 -2 23 -3 7 -1 8 -6 3 -14
-5 -7 -1 -4 8 6 10 11 18 15 18 11 0 -5 68 -9 150 -9 83 0 150 2 150 5 0 10
65 5 72 -5 5 -6 8 -6 8 1 0 6 7 11 15 11 12 0 12 -3 3 -16 -11 -13 -9 -13 7 1
14 11 49 18 120 23 55 4 103 9 108 12 4 2 7 -2 7 -9 0 -8 3 -9 8 -3 8 13 113
35 106 23 -6 -10 10 -11 20 0 4 4 11 7 14 8 4 0 32 4 62 9 30 4 62 9 70 10 8
1 22 5 30 8 8 4 24 5 35 3 11 -2 22 0 25 4 3 4 23 10 45 13 22 4 55 11 73 16
18 5 33 10 35 9 1 0 22 5 47 12 25 7 53 14 63 16 10 2 27 6 37 9 38 12 66 18
92 19 14 0 26 6 25 11 -1 6 5 10 13 11 8 0 35 7 60 14 25 8 47 14 50 15 3 1
22 9 44 18 21 9 42 15 46 12 5 -3 10 0 12 6 2 7 18 12 35 13 17 0 29 4 27 8
-6 10 34 20 48 12 7 -4 10 -4 6 1 -10 11 42 37 59 30 8 -2 12 -1 9 4 -3 5 8
14 24 20 17 5 30 7 30 3 0 -4 4 -2 8 5 4 6 16 13 27 15 11 1 22 6 25 9 3 3 68
36 145 74 77 39 142 72 145 76 3 3 13 5 22 4 12 -2 15 2 10 13 -5 15 -3 15 10
4 13 -10 18 -10 24 -1 5 8 3 10 -7 5 -8 -4 -5 -1 5 8 10 8 22 13 26 11 5 -3
11 2 14 11 4 10 13 14 28 10 13 -3 17 -3 10 0 -9 4 -4 12 18 25 17 11 35 17
40 14 5 -3 12 0 16 6 5 8 2 10 -7 5 -8 -4 -5 0 5 8 11 9 25 16 32 16 7 0 14 4
16 9 3 8 72 56 152 106 17 10 33 23 34 27 2 4 8 8 13 8 8 0 35 20 65 48 8 7
18 10 24 7 6 -4 9 -1 8 7 -2 8 6 13 20 12 16 -1 20 2 12 11 -7 8 -2 16 18 25
15 7 31 13 35 11 5 -1 6 3 2 9 -3 5 5 15 19 21 14 7 23 16 20 20 -3 5 -1 9 4
9 4 0 18 9 30 21 12 11 27 17 32 14 6 -4 9 -1 8 7 -2 7 3 12 10 10 8 -1 11 2
8 7 -8 12 43 53 57 44 5 -3 7 -1 4 4 -8 13 17 36 28 25 5 -4 5 -2 2 4 -4 7 0
17 8 24 12 10 15 10 15 -1 0 -8 6 -3 13 11 8 16 20 24 33 22 13 -2 15 0 7 5
-18 13 32 64 55 57 11 -4 13 -3 5 3 -9 6 2 23 40 60 29 29 72 75 97 103 25 28
55 61 66 75 12 13 25 21 28 18 3 -4 6 0 6 9 0 19 34 51 44 41 4 -4 4 0 0 10
-3 10 -1 17 5 17 6 0 11 7 11 16 0 8 5 12 10 9 6 -3 10 -1 10 5 0 6 4 9 9 5 5
-3 13 0 17 6 4 8 3 9 -4 5 -20 -12 -13 8 11 34 12 14 40 49 61 77 21 29 42 53
47 53 6 0 8 4 5 9 -7 11 33 63 43 57 4 -3 8 5 8 16 1 12 10 28 19 37 12 11 14
12 9 2 -6 -10 -4 -12 4 -7 6 4 9 11 6 16 -6 9 47 96 79 133 9 9 17 20 17 25 4
21 12 31 22 25 6 -3 7 -1 3 5 -8 13 28 75 38 65 4 -4 4 0 0 10 -3 9 -2 17 3
17 5 0 15 16 23 35 8 19 18 35 22 35 5 0 7 4 3 9 -3 6 2 14 11 19 9 5 15 12
14 16 -5 16 36 86 50 86 11 0 12 2 3 8 -10 6 -9 14 4 32 10 14 18 31 20 39 1
8 7 17 13 21 7 4 11 9 9 11 -5 8 34 99 42 99 5 0 8 3 8 7 -1 5 0 11 1 16 1 4
3 10 4 15 1 4 9 23 18 43 9 20 19 46 23 58 3 11 10 19 14 16 5 -2 6 7 3 20 -3
19 0 25 14 26 11 0 14 3 8 5 -9 4 -8 13 2 34 8 16 17 38 19 50 8 42 48 145 59
152 7 5 6 8 -3 8 -12 0 -12 3 -3 12 7 7 12 20 12 30 0 10 4 18 8 18 5 0 8 10
8 23 -1 14 4 21 13 19 11 -2 12 0 3 11 -7 8 -9 16 -7 19 3 3 8 15 10 27 11 47
13 58 25 101 7 25 13 51 13 58 0 6 4 12 9 12 5 0 7 4 4 8 -2 4 2 37 10 72 7
36 16 85 20 110 3 24 7 47 9 50 2 4 7 29 10 56 4 27 8 60 11 74 2 14 7 52 10
85 4 33 8 62 10 65 1 3 6 53 9 110 5 75 12 111 24 125 14 17 14 18 0 7 -15
-11 -16 -6 -13 55 7 126 9 323 3 323 -10 0 -5 45 6 52 6 5 5 8 -3 8 -9 0 -10
5 -3 18 6 11 6 23 2 28 -8 8 -22 158 -25 256 -1 21 -5 38 -9 38 -5 0 -6 3 -3
8 2 4 0 29 -5 55 -10 56 -20 130 -22 174 -1 18 -6 33 -11 33 -4 0 -6 11 -4 25
3 13 2 26 -2 27 -5 2 -10 19 -13 38 -21 133 -94 392 -164 585 -197 542 -500
1048 -878 1465 -512 563 -1156 984 -1865 1220 -164 55 -367 112 -435 123 -16
3 -59 12 -95 20 -36 8 -90 19 -120 23 -30 4 -57 8 -60 9 -3 1 -30 5 -60 9 -30
5 -62 10 -71 11 -9 2 -52 6 -95 10 -43 4 -90 9 -104 12 -30 5 -596 13 -601 9z"/>
<path d="M8635 2961 c-3 -5 -2 -12 3 -15 5 -3 9 1 9 9 0 17 -3 19 -12 6z"/>
<path d="M516 2758 c3 -5 10 -6 15 -3 13 9 11 12 -6 12 -8 0 -12 -4 -9 -9z"/>
<path d="M656 2642 c-2 -4 -1 -14 4 -22 7 -11 9 -9 7 8 -1 24 -3 26 -11 14z"/>
<path d="M8446 2602 c-3 -5 1 -9 9 -9 8 0 12 4 9 9 -3 4 -7 8 -9 8 -2 0 -6 -4
-9 -8z"/>
<path d="M690 2520 c0 -5 5 -10 11 -10 5 0 7 5 4 10 -3 6 -8 10 -11 10 -2 0
-4 -4 -4 -10z"/>
<path d="M8353 2365 c0 -8 4 -12 9 -9 5 3 6 10 3 15 -9 13 -12 11 -12 -6z"/>
<path d="M8290 2359 c0 -5 5 -7 10 -4 6 3 10 8 10 11 0 2 -4 4 -10 4 -5 0 -10
-5 -10 -11z"/>
<path d="M873 2215 c0 -8 4 -12 9 -9 5 3 6 10 3 15 -9 13 -12 11 -12 -6z"/>
<path d="M8235 2221 c-3 -5 -2 -12 3 -15 5 -3 9 1 9 9 0 17 -3 19 -12 6z"/>
<path d="M8213 2175 c0 -8 4 -12 9 -9 5 3 6 10 3 15 -9 13 -12 11 -12 -6z"/>
<path d="M1016 2033 c-6 -14 -5 -15 5 -6 7 7 10 15 7 18 -3 3 -9 -2 -12 -12z"/>
<path d="M8093 2015 c0 -8 4 -12 9 -9 5 3 6 10 3 15 -9 13 -12 11 -12 -6z"/>
<path d="M1065 1960 c-3 -6 1 -7 9 -4 18 7 21 14 7 14 -6 0 -13 -4 -16 -10z"/>
<path d="M8027 1959 c7 -7 15 -10 18 -7 3 3 -2 9 -12 12 -14 6 -15 5 -6 -5z"/>
<path d="M1136 1853 c-6 -14 -5 -15 5 -6 7 7 10 15 7 18 -3 3 -9 -2 -12 -12z"/>
<path d="M1160 1840 c-9 -6 -10 -10 -3 -10 6 0 15 5 18 10 8 12 4 12 -15 0z"/>
<path d="M1166 1802 c-3 -5 1 -9 9 -9 8 0 12 4 9 9 -3 4 -7 8 -9 8 -2 0 -6 -4
-9 -8z"/>
<path d="M1215 1780 c3 -5 8 -10 11 -10 2 0 4 5 4 10 0 6 -5 10 -11 10 -5 0
-7 -4 -4 -10z"/>
<path d="M7855 1780 c-3 -5 -1 -10 4 -10 6 0 11 5 11 10 0 6 -2 10 -4 10 -3 0
-8 -4 -11 -10z"/>
<path d="M7890 1779 c0 -5 5 -7 10 -4 6 3 10 8 10 11 0 2 -4 4 -10 4 -5 0 -10
-5 -10 -11z"/>
<path d="M1276 1718 c3 -5 10 -6 15 -3 13 9 11 12 -6 12 -8 0 -12 -4 -9 -9z"/>
<path d="M1313 1675 c0 -8 4 -12 9 -9 5 3 6 10 3 15 -9 13 -12 11 -12 -6z"/>
<path d="M7813 1663 c4 -3 1 -13 -6 -22 -11 -14 -10 -14 5 -2 16 12 16 31 1
31 -4 0 -3 -3 0 -7z"/>
<path d="M1350 1601 c0 -6 4 -13 10 -16 6 -3 7 1 4 9 -7 18 -14 21 -14 7z"/>
<path d="M1400 1600 c-9 -6 -10 -10 -3 -10 6 0 15 5 18 10 8 12 4 12 -15 0z"/>
<path d="M7696 1538 c3 -4 11 -5 19 -1 21 7 19 12 -4 10 -11 0 -18 -5 -15 -9z"/>
<path d="M1456 1502 c-2 -4 -1 -14 4 -22 7 -11 9 -9 7 8 -1 24 -3 26 -11 14z"/>
<path d="M1495 1459 c-3 -4 2 -6 10 -5 21 3 28 13 10 13 -9 0 -18 -4 -20 -8z"/>
<path d="M1630 1401 c0 -6 4 -13 10 -16 6 -3 7 1 4 9 -7 18 -14 21 -14 7z"/>
<path d="M7547 1399 c7 -7 15 -10 18 -7 3 3 -2 9 -12 12 -14 6 -15 5 -6 -5z"/>
<path d="M1630 1360 c0 -5 5 -10 11 -10 5 0 7 5 4 10 -3 6 -8 10 -11 10 -2 0
-4 -4 -4 -10z"/>
<path d="M7510 1361 c0 -6 4 -13 10 -16 6 -3 7 1 4 9 -7 18 -14 21 -14 7z"/>
<path d="M7433 1345 c0 -8 4 -12 9 -9 5 3 6 10 3 15 -9 13 -12 11 -12 -6z"/>
<path d="M7410 1300 c0 -5 5 -10 11 -10 5 0 7 5 4 10 -3 6 -8 10 -11 10 -2 0
-4 -4 -4 -10z"/>
<path d="M1710 1259 c0 -5 5 -7 10 -4 6 3 10 8 10 11 0 2 -4 4 -10 4 -5 0 -10
-5 -10 -11z"/>
<path d="M1785 1260 c-3 -6 1 -7 9 -4 18 7 21 14 7 14 -6 0 -13 -4 -16 -10z"/>
<path d="M1827 1239 c7 -7 15 -10 18 -7 3 3 -2 9 -12 12 -14 6 -15 5 -6 -5z"/>
<path d="M7307 1239 c7 -7 15 -10 18 -7 3 3 -2 9 -12 12 -14 6 -15 5 -6 -5z"/>
<path d="M1795 1231 c-3 -5 -2 -12 3 -15 5 -3 9 1 9 9 0 17 -3 19 -12 6z"/>
<path d="M1836 1207 c3 -10 9 -15 12 -12 3 3 0 11 -7 18 -10 9 -11 8 -5 -6z"/>
<path d="M1870 1201 c0 -6 4 -13 10 -16 6 -3 7 1 4 9 -7 18 -14 21 -14 7z"/>
<path d="M1913 1175 c0 -8 4 -12 9 -9 5 3 6 10 3 15 -9 13 -12 11 -12 -6z"/>
<path d="M7210 1139 c0 -5 5 -7 10 -4 6 3 10 8 10 11 0 2 -4 4 -10 4 -5 0 -10
-5 -10 -11z"/>
<path d="M7216 1098 c3 -5 10 -6 15 -3 13 9 11 12 -6 12 -8 0 -12 -4 -9 -9z"/>
<path d="M7046 1082 c-3 -5 1 -9 9 -9 8 0 12 4 9 9 -3 4 -7 8 -9 8 -2 0 -6 -4
-9 -8z"/>
<path d="M7035 1040 c3 -5 8 -10 11 -10 2 0 4 5 4 10 0 6 -5 10 -11 10 -5 0
-7 -4 -4 -10z"/>
<path d="M7067 1039 c7 -7 15 -10 18 -7 3 3 -2 9 -12 12 -14 6 -15 5 -6 -5z"/>
<path d="M2110 1026 c0 -2 7 -7 16 -10 8 -3 12 -2 9 4 -6 10 -25 14 -25 6z"/>
<path d="M2175 971 c-3 -5 -2 -12 3 -15 5 -3 9 1 9 9 0 17 -3 19 -12 6z"/>
<path d="M2216 962 c-3 -5 1 -9 9 -9 8 0 12 4 9 9 -3 4 -7 8 -9 8 -2 0 -6 -4
-9 -8z"/>
<path d="M6950 945 c0 -7 30 -13 34 -7 3 4 -4 9 -15 9 -10 1 -19 0 -19 -2z"/>
<path d="M6815 880 c3 -5 8 -10 11 -10 2 0 4 5 4 10 0 6 -5 10 -11 10 -5 0 -7
-4 -4 -10z"/>
<path d="M2233 866 c0 -15 22 -15 34 0 4 5 4 6 -1 2 -5 -4 -14 -3 -21 2 -8 7
-12 5 -12 -4z"/>
<path d="M2376 847 c3 -10 9 -15 12 -12 3 3 0 11 -7 18 -10 9 -11 8 -5 -6z"/>
<path d="M6730 839 c0 -5 5 -7 10 -4 6 3 10 8 10 11 0 2 -4 4 -10 4 -5 0 -10
-5 -10 -11z"/>
<path d="M6639 828 c-5 -16 -4 -46 2 -42 4 2 7 13 6 24 -1 17 -5 26 -8 18z"/>
<path d="M2355 811 c-3 -5 -2 -12 3 -15 5 -3 9 1 9 9 0 17 -3 19 -12 6z"/>
<path d="M2393 795 c0 -8 4 -12 9 -9 5 3 6 10 3 15 -9 13 -12 11 -12 -6z"/>
<path d="M2467 799 c7 -7 15 -10 18 -7 3 3 -2 9 -12 12 -14 6 -15 5 -6 -5z"/>
<path d="M6533 767 c0 -8 6 -14 14 -14 9 0 10 4 2 14 -6 7 -12 13 -14 13 -1 0
-2 -6 -2 -13z"/>
<path d="M2495 760 c3 -5 8 -10 11 -10 2 0 4 5 4 10 0 6 -5 10 -11 10 -5 0 -7
-4 -4 -10z"/>
<path d="M2310 756 c0 -2 8 -10 18 -17 15 -13 16 -12 3 4 -13 16 -21 21 -21
13z"/>
<path d="M2513 725 c0 -8 4 -12 9 -9 5 3 6 10 3 15 -9 13 -12 11 -12 -6z"/>
<path d="M2616 727 c3 -10 9 -15 12 -12 3 3 0 11 -7 18 -10 9 -11 8 -5 -6z"/>
<path d="M2470 681 c0 -6 4 -13 10 -16 6 -3 7 1 4 9 -7 18 -14 21 -14 7z"/>
<path d="M2666 678 c3 -4 9 -8 15 -8 5 0 9 4 9 8 0 5 -7 9 -15 9 -8 0 -12 -4
-9 -9z"/>
<path d="M2710 681 c0 -6 4 -13 10 -16 6 -3 7 1 4 9 -7 18 -14 21 -14 7z"/>
<path d="M6390 686 c0 -2 7 -7 16 -10 8 -3 12 -2 9 4 -6 10 -25 14 -25 6z"/>
<path d="M2595 640 c-3 -5 -1 -10 4 -10 6 0 11 5 11 10 0 6 -2 10 -4 10 -3 0
-8 -4 -11 -10z"/>
<path d="M2650 640 c0 -5 5 -10 11 -10 5 0 7 5 4 10 -3 6 -8 10 -11 10 -2 0
-4 -4 -4 -10z"/>
<path d="M2706 642 c-3 -5 1 -9 9 -9 8 0 12 4 9 9 -3 4 -7 8 -9 8 -2 0 -6 -4
-9 -8z"/>
<path d="M6330 639 c0 -5 5 -7 10 -4 6 3 10 8 10 11 0 2 -4 4 -10 4 -5 0 -10
-5 -10 -11z"/>
<path d="M6359 633 c-13 -16 -12 -17 4 -4 16 13 21 21 13 21 -2 0 -10 -8 -17
-17z"/>
<path d="M6415 620 c3 -5 8 -10 11 -10 2 0 4 5 4 10 0 6 -5 10 -11 10 -5 0 -7
-4 -4 -10z"/>
<path d="M2895 610 c-4 -6 -11 -7 -17 -4 -7 4 -8 2 -4 -5 6 -9 11 -9 22 0 14
11 18 19 10 19 -3 0 -8 -5 -11 -10z"/>
<path d="M2787 599 c7 -7 15 -10 18 -7 3 3 -2 9 -12 12 -14 6 -15 5 -6 -5z"/>
<path d="M2915 601 c-3 -5 -2 -12 3 -15 5 -3 9 1 9 9 0 17 -3 19 -12 6z"/>
<path d="M2870 576 c0 -2 8 -10 18 -17 15 -13 16 -12 3 4 -13 16 -21 21 -21
13z"/>
<path d="M2800 560 c-9 -6 -10 -10 -3 -10 6 0 15 5 18 10 8 12 4 12 -15 0z"/>
<path d="M3035 561 c-3 -5 -2 -12 3 -15 5 -3 9 1 9 9 0 17 -3 19 -12 6z"/>
<path d="M6036 553 c-6 -14 -5 -15 5 -6 7 7 10 15 7 18 -3 3 -9 -2 -12 -12z"/>
<path d="M6115 529 c-4 -6 -5 -12 -2 -15 2 -3 7 2 10 11 7 17 1 20 -8 4z"/>
<path d="M6353 525 c0 -8 4 -12 9 -9 5 3 6 10 3 15 -9 13 -12 11 -12 -6z"/>
<path d="M3025 520 c-3 -6 1 -7 9 -4 18 7 21 14 7 14 -6 0 -13 -4 -16 -10z"/>
<path d="M3147 519 c7 -7 15 -10 18 -7 3 3 -2 9 -12 12 -14 6 -15 5 -6 -5z"/>
<path d="M5999 528 c-5 -18 -6 -38 -1 -34 7 8 12 36 6 36 -2 0 -4 -1 -5 -2z"/>
<path d="M6079 513 c-13 -16 -12 -17 4 -4 9 7 17 15 17 17 0 8 -8 3 -21 -13z"/>
<path d="M2955 509 c-4 -6 -5 -12 -2 -15 2 -3 7 2 10 11 7 17 1 20 -8 4z"/>
<path d="M6195 509 c-4 -6 -5 -12 -2 -15 2 -3 7 2 10 11 7 17 1 20 -8 4z"/>
<path d="M3080 500 c-9 -6 -10 -10 -3 -10 6 0 15 5 18 10 8 12 4 12 -15 0z"/>
<path d="M3230 481 c0 -6 4 -13 10 -16 6 -3 7 1 4 9 -7 18 -14 21 -14 7z"/>
<path d="M3276 479 c4 -8 30 -6 38 2 3 3 -5 5 -19 5 -13 0 -22 -3 -19 -7z"/>
<path d="M3090 459 c0 -5 5 -7 10 -4 6 3 10 8 10 11 0 2 -4 4 -10 4 -5 0 -10
-5 -10 -11z"/>
<path d="M3216 438 c3 -5 10 -6 15 -3 13 9 11 12 -6 12 -8 0 -12 -4 -9 -9z"/>
<path d="M3286 438 c3 -5 10 -6 15 -3 13 9 11 12 -6 12 -8 0 -12 -4 -9 -9z"/>
<path d="M5993 425 c0 -8 4 -12 9 -9 5 3 6 10 3 15 -9 13 -12 11 -12 -6z"/>
<path d="M3355 421 c-3 -5 -2 -12 3 -15 5 -3 9 1 9 9 0 17 -3 19 -12 6z"/>
<path d="M5630 415 c5 -7 8 -14 5 -17 -3 -2 2 -5 10 -5 10 0 12 4 5 12 -5 7
-8 14 -5 17 3 2 -2 5 -10 5 -10 0 -12 -4 -5 -12z"/>
<path d="M3416 407 c3 -10 9 -15 12 -12 3 3 0 11 -7 18 -10 9 -11 8 -5 -6z"/>
<path d="M3496 407 c3 -10 9 -15 12 -12 3 3 0 11 -7 18 -10 9 -11 8 -5 -6z"/>
<path d="M5550 416 c0 -2 8 -10 18 -17 15 -13 16 -12 3 4 -13 16 -21 21 -21
13z"/>
<path d="M5597 413 c-10 -9 -9 -23 1 -23 5 0 9 7 9 15 0 17 -1 18 -10 8z"/>
<path d="M3530 401 c0 -6 4 -13 10 -16 6 -3 7 1 4 9 -7 18 -14 21 -14 7z"/>
<path d="M5676 398 c3 -5 10 -6 15 -3 13 9 11 12 -6 12 -8 0 -12 -4 -9 -9z"/>
<path d="M5795 380 c3 -5 8 -10 11 -10 2 0 4 5 4 10 0 6 -5 10 -11 10 -5 0 -7
-4 -4 -10z"/>
<path d="M3476 367 c3 -10 9 -15 12 -12 3 3 0 11 -7 18 -10 9 -11 8 -5 -6z"/>
<path d="M3793 365 c0 -8 3 -13 5 -10 3 3 10 0 17 -5 8 -7 12 -5 12 5 0 8 -3
13 -5 10 -3 -3 -10 0 -17 5 -8 7 -12 5 -12 -5z"/>
<path d="M5273 355 c0 -8 4 -12 9 -9 5 3 6 10 3 15 -9 13 -12 11 -12 -6z"/>
<path d="M5355 359 c-3 -4 2 -6 10 -5 21 3 28 13 10 13 -9 0 -18 -4 -20 -8z"/>
<path d="M5233 347 c0 -8 6 -14 14 -14 9 0 10 4 2 14 -6 7 -12 13 -14 13 -1 0
-2 -6 -2 -13z"/>
<path d="M3730 336 c0 -2 8 -10 18 -17 15 -13 16 -12 3 4 -13 16 -21 21 -21
13z"/>
<path d="M3926 321 c-14 -15 -15 -21 -4 -27 7 -4 10 -3 5 1 -4 5 0 17 10 27 9
10 14 18 11 18 -3 0 -13 -9 -22 -19z"/>
<path d="M5555 331 c-3 -5 -2 -12 3 -15 5 -3 9 1 9 9 0 17 -3 19 -12 6z"/>
<path d="M3775 320 c3 -5 8 -10 11 -10 2 0 4 5 4 10 0 6 -5 10 -11 10 -5 0 -7
-4 -4 -10z"/>
<path d="M4064 322 c4 -3 14 -7 22 -8 9 -1 13 0 10 4 -4 3 -14 7 -22 8 -9 1
-13 0 -10 -4z"/>
<path d="M4160 326 c0 -2 8 -10 18 -17 15 -13 16 -12 3 4 -13 16 -21 21 -21
13z"/>
<path d="M4919 313 c-13 -16 -12 -17 4 -4 9 7 17 15 17 17 0 8 -8 3 -21 -13z"/>
<path d="M5084 318 c-3 -4 5 -5 17 -3 30 6 36 14 9 12 -12 -1 -24 -5 -26 -9z"/>
<path d="M5156 313 c-6 -14 -5 -15 5 -6 7 7 10 15 7 18 -3 3 -9 -2 -12 -12z"/>
<path d="M3573 295 c0 -8 4 -12 9 -9 5 3 6 10 3 15 -9 13 -12 11 -12 -6z"/>
<path d="M4121 296 c-9 -11 -9 -16 1 -22 7 -4 10 -4 6 1 -4 4 -3 14 3 22 6 7
9 13 6 13 -2 0 -10 -6 -16 -14z"/>
<path d="M4554 296 c1 -8 5 -18 8 -22 4 -3 5 1 4 10 -1 8 -5 18 -8 22 -4 3 -5
-1 -4 -10z"/>
<path d="M4580 306 c0 -2 8 -10 18 -17 15 -13 16 -12 3 4 -13 16 -21 21 -21
13z"/>
<path d="M4746 302 c-2 -4 4 -8 14 -8 10 0 16 4 14 8 -3 4 -9 8 -14 8 -5 0
-11 -4 -14 -8z"/>
<path d="M5069 297 c6 -8 7 -18 3 -22 -4 -5 -1 -5 6 -1 10 6 10 11 1 22 -6 8
-14 14 -16 14 -3 0 0 -6 6 -13z"/>
<path d="M4696 287 c3 -10 9 -15 12 -12 3 3 0 11 -7 18 -10 9 -11 8 -5 -6z"/>
<path d="M4055 280 c3 -5 8 -10 11 -10 2 0 4 5 4 10 0 6 -5 10 -11 10 -5 0 -7
-4 -4 -10z"/>
<path d="M4093 271 c0 -11 5 -18 9 -15 4 3 5 11 1 19 -7 21 -12 19 -10 -4z"/>
<path d="M4160 280 c-9 -6 -10 -10 -3 -10 6 0 15 5 18 10 8 12 4 12 -15 0z"/>
<path d="M4673 275 c0 -8 4 -12 9 -9 5 3 6 10 3 15 -9 13 -12 11 -12 -6z"/>
<path d="M5295 280 c-3 -5 -1 -10 4 -10 6 0 11 5 11 10 0 6 -2 10 -4 10 -3 0
-8 -4 -11 -10z"/>
<path d="M3890 260 c0 -5 5 -10 11 -10 5 0 7 5 4 10 -3 6 -8 10 -11 10 -2 0
-4 -4 -4 -10z"/>
<path d="M4596 262 c-2 -4 -1 -14 4 -22 7 -11 9 -9 7 8 -1 24 -3 26 -11 14z"/>
<path d="M5130 259 c0 -5 5 -7 10 -4 6 3 10 8 10 11 0 2 -4 4 -10 4 -5 0 -10
-5 -10 -11z"/>
<path d="M3955 249 c-4 -6 -5 -12 -2 -15 2 -3 7 2 10 11 7 17 1 20 -8 4z"/>
<path d="M3986 242 c-3 -5 1 -9 9 -9 8 0 12 4 9 9 -3 4 -7 8 -9 8 -2 0 -6 -4
-9 -8z"/>
<path d="M4736 238 c3 -5 10 -6 15 -3 13 9 11 12 -6 12 -8 0 -12 -4 -9 -9z"/>
<path d="M4970 240 c0 -5 5 -10 11 -10 5 0 7 5 4 10 -3 6 -8 10 -11 10 -2 0
-4 -4 -4 -10z"/>
<path d="M4106 222 c-3 -5 1 -9 9 -9 8 0 12 4 9 9 -3 4 -7 8 -9 8 -2 0 -6 -4
-9 -8z"/>
<path d="M4176 222 c-2 -4 -1 -14 4 -22 7 -11 9 -9 7 8 -1 24 -3 26 -11 14z"/>
<path d="M4335 220 c3 -5 8 -10 11 -10 2 0 4 5 4 10 0 6 -5 10 -11 10 -5 0 -7
-4 -4 -10z"/>
<path d="M4375 220 c3 -5 8 -10 11 -10 2 0 4 5 4 10 0 6 -5 10 -11 10 -5 0 -7
-4 -4 -10z"/>
<path d="M4690 220 c0 -5 5 -10 11 -10 5 0 7 5 4 10 -3 6 -8 10 -11 10 -2 0
-4 -4 -4 -10z"/>
<path d="M5056 218 c3 -5 10 -6 15 -3 13 9 11 12 -6 12 -8 0 -12 -4 -9 -9z"/>
<path d="M4595 200 c3 -5 8 -10 11 -10 2 0 4 5 4 10 0 6 -5 10 -11 10 -5 0 -7
-4 -4 -10z"/>
<path d="M5310 201 c0 -6 4 -13 10 -16 6 -3 7 1 4 9 -7 18 -14 21 -14 7z"/>
</g>
</svg>
